# Wavefront OBJ file automatically generated by Tiled2Unity

# Vertices (Count = 202)
v 0 -129 0
v -384 -129 0
v -384 0 0
v 0 0 0
v -768 -129 0
v -768 0 0
v -1152 -129 0
v -1152 0 0
v -1536 -129 0
v -1536 0 0
v -1920 -129 0
v -1920 0 0
v -2304 -129 0
v -2304 0 0
v -2688 -129 0
v -2688 0 0
v -3072 -129 0
v -3072 0 0
v -3456 -129 0
v -3456 0 0
v -3840 -129 0
v -3840 0 0
v -4224 -129 0
v -4224 0 0
v -4608 -129 0
v -4608 0 0
v -4992 -129 0
v -4992 0 0
v -5376 -129 0
v -5376 0 0
v -5760 -129 0
v -5760 0 0
v -6144 -129 0
v -6144 0 0
v -6528 -129 0
v -6528 0 0
v -6912 -129 0
v -6912 0 0
v -7296 -129 0
v -7296 0 0
v -7680 -129 0
v -7680 0 0
v -8064 -129 0
v -8064 0 0
v -8448 -129 0
v -8448 0 0
v -8832 -129 0
v -8832 0 0
v -9216 -129 0
v -9216 0 0
v -9600 -129 0
v -9600 0 0
v -9984 -129 0
v -9984 0 0
v -10368 -129 0
v -10368 0 0
v -10752 -129 0
v -10752 0 0
v -11136 -129 0
v -11136 0 0
v -11520 -129 0
v -11520 0 0
v -11904 -129 0
v -11904 0 0
v -12288 -129 0
v -12288 0 0
v -12672 -129 0
v -12672 0 0
v -13056 -129 0
v -13056 0 0
v -13440 -129 0
v -13440 0 0
v -13824 -129 0
v -13824 0 0
v -14208 -129 0
v -14208 0 0
v -14592 -129 0
v -14592 0 0
v -14976 -129 0
v -14976 0 0
v -15360 -129 0
v -15360 0 0
v -15744 -129 0
v -15744 0 0
v -16128 -129 0
v -16128 0 0
v -16512 -129 0
v -16512 0 0
v -16896 -129 0
v -16896 0 0
v -17280 -129 0
v -17280 0 0
v -17664 -129 0
v -17664 0 0
v -18048 -129 0
v -18048 0 0
v -18432 -129 0
v -18432 0 0
v -18816 -129 0
v -18816 0 0
v -19200 -129 0
v -19200 0 0
v -19584 -129 0
v -19584 0 0
v -19968 -129 0
v -19968 0 0
v -20352 -129 0
v -20352 0 0
v -20736 -129 0
v -20736 0 0
v -21120 -129 0
v -21120 0 0
v -21504 -129 0
v -21504 0 0
v -21888 -129 0
v -21888 0 0
v -22272 -129 0
v -22272 0 0
v -22656 -129 0
v -22656 0 0
v -23040 -129 0
v -23040 0 0
v -23424 -129 0
v -23424 0 0
v -23808 -129 0
v -23808 0 0
v -24192 -129 0
v -24192 0 0
v -24576 -129 0
v -24576 0 0
v -24960 -129 0
v -24960 0 0
v -25344 -129 0
v -25344 0 0
v -25728 -129 0
v -25728 0 0
v -26112 -129 0
v -26112 0 0
v -26496 -129 0
v -26496 0 0
v -26880 -129 0
v -26880 0 0
v -27264 -129 0
v -27264 0 0
v -27648 -129 0
v -27648 0 0
v -28032 -129 0
v -28032 0 0
v -28416 -129 0
v -28416 0 0
v -28800 -129 0
v -28800 0 0
v -29184 -129 0
v -29184 0 0
v -29568 -129 0
v -29568 0 0
v -29952 -129 0
v -29952 0 0
v -30336 -129 0
v -30336 0 0
v -30720 -129 0
v -30720 0 0
v -31104 -129 0
v -31104 0 0
v -31488 -129 0
v -31488 0 0
v -31872 -129 0
v -31872 0 0
v -32256 -129 0
v -32256 0 0
v -32640 -129 0
v -32640 0 0
v -33024 -129 0
v -33024 0 0
v -33408 -129 0
v -33408 0 0
v -33792 -129 0
v -33792 0 0
v -34176 -129 0
v -34176 0 0
v -34560 -129 0
v -34560 0 0
v -34944 -129 0
v -34944 0 0
v -35328 -129 0
v -35328 0 0
v -35712 -129 0
v -35712 0 0
v -36096 -129 0
v -36096 0 0
v -36480 -129 0
v -36480 0 0
v -36864 -129 0
v -36864 0 0
v -37248 -129 0
v -37248 0 0
v -37632 -129 0
v -37632 0 0
v -38016 -129 0
v -38016 0 0
v -38400 -129 0
v -38400 0 0

# Texture Coorindates (Count = 4)
vt 0.0001220703 0.6641846
vt 0.9998779 0.6641846
vt 0.9998779 0.9998779
vt 0.0001220703 0.9998779

# Normal
vn 0 0 -1

# Groups (Count = 1)
g mesh_[00]_[00]
f  1/1/1  2/2/1  3/3/1  4/4/1 
f  2/1/1  5/2/1  6/3/1  3/4/1 
f  5/1/1  7/2/1  8/3/1  6/4/1 
f  7/1/1  9/2/1  10/3/1  8/4/1 
f  9/1/1  11/2/1  12/3/1  10/4/1 
f  11/1/1  13/2/1  14/3/1  12/4/1 
f  13/1/1  15/2/1  16/3/1  14/4/1 
f  15/1/1  17/2/1  18/3/1  16/4/1 
f  17/1/1  19/2/1  20/3/1  18/4/1 
f  19/1/1  21/2/1  22/3/1  20/4/1 
f  21/1/1  23/2/1  24/3/1  22/4/1 
f  23/1/1  25/2/1  26/3/1  24/4/1 
f  25/1/1  27/2/1  28/3/1  26/4/1 
f  27/1/1  29/2/1  30/3/1  28/4/1 
f  29/1/1  31/2/1  32/3/1  30/4/1 
f  31/1/1  33/2/1  34/3/1  32/4/1 
f  33/1/1  35/2/1  36/3/1  34/4/1 
f  35/1/1  37/2/1  38/3/1  36/4/1 
f  37/1/1  39/2/1  40/3/1  38/4/1 
f  39/1/1  41/2/1  42/3/1  40/4/1 
f  41/1/1  43/2/1  44/3/1  42/4/1 
f  43/1/1  45/2/1  46/3/1  44/4/1 
f  45/1/1  47/2/1  48/3/1  46/4/1 
f  47/1/1  49/2/1  50/3/1  48/4/1 
f  49/1/1  51/2/1  52/3/1  50/4/1 
f  51/1/1  53/2/1  54/3/1  52/4/1 
f  53/1/1  55/2/1  56/3/1  54/4/1 
f  55/1/1  57/2/1  58/3/1  56/4/1 
f  57/1/1  59/2/1  60/3/1  58/4/1 
f  59/1/1  61/2/1  62/3/1  60/4/1 
f  61/1/1  63/2/1  64/3/1  62/4/1 
f  63/1/1  65/2/1  66/3/1  64/4/1 
f  65/1/1  67/2/1  68/3/1  66/4/1 
f  67/1/1  69/2/1  70/3/1  68/4/1 
f  69/1/1  71/2/1  72/3/1  70/4/1 
f  71/1/1  73/2/1  74/3/1  72/4/1 
f  73/1/1  75/2/1  76/3/1  74/4/1 
f  75/1/1  77/2/1  78/3/1  76/4/1 
f  77/1/1  79/2/1  80/3/1  78/4/1 
f  79/1/1  81/2/1  82/3/1  80/4/1 
f  81/1/1  83/2/1  84/3/1  82/4/1 
f  83/1/1  85/2/1  86/3/1  84/4/1 
f  85/1/1  87/2/1  88/3/1  86/4/1 
f  87/1/1  89/2/1  90/3/1  88/4/1 
f  89/1/1  91/2/1  92/3/1  90/4/1 
f  91/1/1  93/2/1  94/3/1  92/4/1 
f  93/1/1  95/2/1  96/3/1  94/4/1 
f  95/1/1  97/2/1  98/3/1  96/4/1 
f  97/1/1  99/2/1  100/3/1  98/4/1 
f  99/1/1  101/2/1  102/3/1  100/4/1 
f  101/1/1  103/2/1  104/3/1  102/4/1 
f  103/1/1  105/2/1  106/3/1  104/4/1 
f  105/1/1  107/2/1  108/3/1  106/4/1 
f  107/1/1  109/2/1  110/3/1  108/4/1 
f  109/1/1  111/2/1  112/3/1  110/4/1 
f  111/1/1  113/2/1  114/3/1  112/4/1 
f  113/1/1  115/2/1  116/3/1  114/4/1 
f  115/1/1  117/2/1  118/3/1  116/4/1 
f  117/1/1  119/2/1  120/3/1  118/4/1 
f  119/1/1  121/2/1  122/3/1  120/4/1 
f  121/1/1  123/2/1  124/3/1  122/4/1 
f  123/1/1  125/2/1  126/3/1  124/4/1 
f  125/1/1  127/2/1  128/3/1  126/4/1 
f  127/1/1  129/2/1  130/3/1  128/4/1 
f  129/1/1  131/2/1  132/3/1  130/4/1 
f  131/1/1  133/2/1  134/3/1  132/4/1 
f  133/1/1  135/2/1  136/3/1  134/4/1 
f  135/1/1  137/2/1  138/3/1  136/4/1 
f  137/1/1  139/2/1  140/3/1  138/4/1 
f  139/1/1  141/2/1  142/3/1  140/4/1 
f  141/1/1  143/2/1  144/3/1  142/4/1 
f  143/1/1  145/2/1  146/3/1  144/4/1 
f  145/1/1  147/2/1  148/3/1  146/4/1 
f  147/1/1  149/2/1  150/3/1  148/4/1 
f  149/1/1  151/2/1  152/3/1  150/4/1 
f  151/1/1  153/2/1  154/3/1  152/4/1 
f  153/1/1  155/2/1  156/3/1  154/4/1 
f  155/1/1  157/2/1  158/3/1  156/4/1 
f  157/1/1  159/2/1  160/3/1  158/4/1 
f  159/1/1  161/2/1  162/3/1  160/4/1 
f  161/1/1  163/2/1  164/3/1  162/4/1 
f  163/1/1  165/2/1  166/3/1  164/4/1 
f  165/1/1  167/2/1  168/3/1  166/4/1 
f  167/1/1  169/2/1  170/3/1  168/4/1 
f  169/1/1  171/2/1  172/3/1  170/4/1 
f  171/1/1  173/2/1  174/3/1  172/4/1 
f  173/1/1  175/2/1  176/3/1  174/4/1 
f  175/1/1  177/2/1  178/3/1  176/4/1 
f  177/1/1  179/2/1  180/3/1  178/4/1 
f  179/1/1  181/2/1  182/3/1  180/4/1 
f  181/1/1  183/2/1  184/3/1  182/4/1 
f  183/1/1  185/2/1  186/3/1  184/4/1 
f  185/1/1  187/2/1  188/3/1  186/4/1 
f  187/1/1  189/2/1  190/3/1  188/4/1 
f  189/1/1  191/2/1  192/3/1  190/4/1 
f  191/1/1  193/2/1  194/3/1  192/4/1 
f  193/1/1  195/2/1  196/3/1  194/4/1 
f  195/1/1  197/2/1  198/3/1  196/4/1 
f  197/1/1  199/2/1  200/3/1  198/4/1 
f  199/1/1  201/2/1  202/3/1  200/4/1 
