# Wavefront OBJ file automatically generated by Tiled2Unity

# Vertices (Count = 306)
v 0 -140 0
v -50 -140 0
v -50 -120 0
v 0 -120 0
v -100 -140 0
v -100 -120 0
v -150 -140 0
v -150 -120 0
v -200 -140 0
v -200 -120 0
v -250 -140 0
v -250 -120 0
v -300 -140 0
v -300 -120 0
v -350 -140 0
v -350 -120 0
v -400 -140 0
v -400 -120 0
v -450 -140 0
v -450 -120 0
v -500 -140 0
v -500 -120 0
v -550 -140 0
v -550 -120 0
v -600 -140 0
v -600 -120 0
v -650 -140 0
v -650 -120 0
v -700 -140 0
v -700 -120 0
v -750 -140 0
v -750 -120 0
v -800 -140 0
v -800 -120 0
v -850 -140 0
v -850 -120 0
v -900 -140 0
v -900 -120 0
v -950 -140 0
v -950 -120 0
v -1000 -140 0
v -1000 -120 0
v -1050 -140 0
v -1050 -120 0
v -1100 -140 0
v -1100 -120 0
v -1150 -140 0
v -1150 -120 0
v -1200 -140 0
v -1200 -120 0
v -1250 -140 0
v -1250 -120 0
v -1300 -140 0
v -1300 -120 0
v -1350 -140 0
v -1350 -120 0
v -1400 -140 0
v -1400 -120 0
v -1450 -140 0
v -1450 -120 0
v -1500 -140 0
v -1500 -120 0
v -1550 -140 0
v -1550 -120 0
v -1600 -140 0
v -1600 -120 0
v -1650 -140 0
v -1650 -120 0
v -1700 -140 0
v -1700 -120 0
v -1750 -140 0
v -1750 -120 0
v -1800 -140 0
v -1800 -120 0
v -1850 -140 0
v -1850 -120 0
v -1900 -140 0
v -1900 -120 0
v -1950 -140 0
v -1950 -120 0
v -2000 -140 0
v -2000 -120 0
v -2050 -140 0
v -2050 -120 0
v -2100 -140 0
v -2100 -120 0
v -2150 -140 0
v -2150 -120 0
v -2200 -140 0
v -2200 -120 0
v -2250 -140 0
v -2250 -120 0
v -2300 -140 0
v -2300 -120 0
v -2350 -140 0
v -2350 -120 0
v -2400 -140 0
v -2400 -120 0
v -2450 -140 0
v -2450 -120 0
v -2500 -140 0
v -2500 -120 0
v 0 -160 0
v -50 -160 0
v -100 -160 0
v -150 -160 0
v -200 -160 0
v -250 -160 0
v -300 -160 0
v -350 -160 0
v -400 -160 0
v -450 -160 0
v -500 -160 0
v -550 -160 0
v -600 -160 0
v -650 -160 0
v -700 -160 0
v -750 -160 0
v -800 -160 0
v -850 -160 0
v -900 -160 0
v -950 -160 0
v -1000 -160 0
v -1050 -160 0
v -1100 -160 0
v -1150 -160 0
v -1200 -160 0
v -1250 -160 0
v -1300 -160 0
v -1350 -160 0
v -1400 -160 0
v -1450 -160 0
v -1500 -160 0
v -1550 -160 0
v -1600 -160 0
v -1650 -160 0
v -1700 -160 0
v -1750 -160 0
v -1800 -160 0
v -1850 -160 0
v -1900 -160 0
v -1950 -160 0
v -2000 -160 0
v -2050 -160 0
v -2100 -160 0
v -2150 -160 0
v -2200 -160 0
v -2250 -160 0
v -2300 -160 0
v -2350 -160 0
v -2400 -160 0
v -2450 -160 0
v -2500 -160 0
v 0 -180 0
v -50 -180 0
v -100 -180 0
v -150 -180 0
v -200 -180 0
v -250 -180 0
v -300 -180 0
v -350 -180 0
v -400 -180 0
v -450 -180 0
v -500 -180 0
v -550 -180 0
v -600 -180 0
v -650 -180 0
v -700 -180 0
v -750 -180 0
v -800 -180 0
v -850 -180 0
v -900 -180 0
v -950 -180 0
v -1000 -180 0
v -1050 -180 0
v -1100 -180 0
v -1150 -180 0
v -1200 -180 0
v -1250 -180 0
v -1300 -180 0
v -1350 -180 0
v -1400 -180 0
v -1450 -180 0
v -1500 -180 0
v -1550 -180 0
v -1600 -180 0
v -1650 -180 0
v -1700 -180 0
v -1750 -180 0
v -1800 -180 0
v -1850 -180 0
v -1900 -180 0
v -1950 -180 0
v -2000 -180 0
v -2050 -180 0
v -2100 -180 0
v -2150 -180 0
v -2200 -180 0
v -2250 -180 0
v -2300 -180 0
v -2350 -180 0
v -2400 -180 0
v -2450 -180 0
v -2500 -180 0
v 0 -200 0
v -50 -200 0
v -100 -200 0
v -150 -200 0
v -200 -200 0
v -250 -200 0
v -300 -200 0
v -350 -200 0
v -400 -200 0
v -450 -200 0
v -500 -200 0
v -550 -200 0
v -600 -200 0
v -650 -200 0
v -700 -200 0
v -750 -200 0
v -800 -200 0
v -850 -200 0
v -900 -200 0
v -950 -200 0
v -1000 -200 0
v -1050 -200 0
v -1100 -200 0
v -1150 -200 0
v -1200 -200 0
v -1250 -200 0
v -1300 -200 0
v -1350 -200 0
v -1400 -200 0
v -1450 -200 0
v -1500 -200 0
v -1550 -200 0
v -1600 -200 0
v -1650 -200 0
v -1700 -200 0
v -1750 -200 0
v -1800 -200 0
v -1850 -200 0
v -1900 -200 0
v -1950 -200 0
v -2000 -200 0
v -2050 -200 0
v -2100 -200 0
v -2150 -200 0
v -2200 -200 0
v -2250 -200 0
v -2300 -200 0
v -2350 -200 0
v -2400 -200 0
v -2450 -200 0
v -2500 -200 0
v 0 -220 0
v -50 -220 0
v -100 -220 0
v -150 -220 0
v -200 -220 0
v -250 -220 0
v -300 -220 0
v -350 -220 0
v -400 -220 0
v -450 -220 0
v -500 -220 0
v -550 -220 0
v -600 -220 0
v -650 -220 0
v -700 -220 0
v -750 -220 0
v -800 -220 0
v -850 -220 0
v -900 -220 0
v -950 -220 0
v -1000 -220 0
v -1050 -220 0
v -1100 -220 0
v -1150 -220 0
v -1200 -220 0
v -1250 -220 0
v -1300 -220 0
v -1350 -220 0
v -1400 -220 0
v -1450 -220 0
v -1500 -220 0
v -1550 -220 0
v -1600 -220 0
v -1650 -220 0
v -1700 -220 0
v -1750 -220 0
v -1800 -220 0
v -1850 -220 0
v -1900 -220 0
v -1950 -220 0
v -2000 -220 0
v -2050 -220 0
v -2100 -220 0
v -2150 -220 0
v -2200 -220 0
v -2250 -220 0
v -2300 -220 0
v -2350 -220 0
v -2400 -220 0
v -2450 -220 0
v -2500 -220 0

# Texture Coorindates (Count = 100)
vt 0.0001220703 0.8246835
vt 0.1027586 0.8246835
vt 0.1027586 0.9998779
vt 0.0001220703 0.9998779
vt 0.1030027 0.8246835
vt 0.2056392 0.8246835
vt 0.2056392 0.9998779
vt 0.1030027 0.9998779
vt 0.2058834 0.8246835
vt 0.3085199 0.8246835
vt 0.3085199 0.9998779
vt 0.2058834 0.9998779
vt 0.308764 0.8246835
vt 0.4114006 0.8246835
vt 0.4114006 0.9998779
vt 0.308764 0.9998779
vt 0.4116447 0.8246835
vt 0.5142812 0.8246835
vt 0.5142812 0.9998779
vt 0.4116447 0.9998779
vt 0.0001220703 0.6492449
vt 0.1027586 0.6492449
vt 0.1027586 0.8244393
vt 0.0001220703 0.8244393
vt 0.1030027 0.6492449
vt 0.2056392 0.6492449
vt 0.2056392 0.8244393
vt 0.1030027 0.8244393
vt 0.2058834 0.6492449
vt 0.3085199 0.6492449
vt 0.3085199 0.8244393
vt 0.2058834 0.8244393
vt 0.308764 0.6492449
vt 0.4114006 0.6492449
vt 0.4114006 0.8244393
vt 0.308764 0.8244393
vt 0.4116447 0.6492449
vt 0.5142812 0.6492449
vt 0.5142812 0.8244393
vt 0.4116447 0.8244393
vt 0.0001220703 0.4738063
vt 0.1027586 0.4738063
vt 0.1027586 0.6490008
vt 0.0001220703 0.6490008
vt 0.1030027 0.4738063
vt 0.2056392 0.4738063
vt 0.2056392 0.6490008
vt 0.1030027 0.6490008
vt 0.2058834 0.4738063
vt 0.3085199 0.4738063
vt 0.3085199 0.6490008
vt 0.2058834 0.6490008
vt 0.308764 0.4738063
vt 0.4114006 0.4738063
vt 0.4114006 0.6490008
vt 0.308764 0.6490008
vt 0.4116447 0.4738063
vt 0.5142812 0.4738063
vt 0.5142812 0.6490008
vt 0.4116447 0.6490008
vt 0.0001220703 0.2983677
vt 0.1027586 0.2983677
vt 0.1027586 0.4735622
vt 0.0001220703 0.4735622
vt 0.1030027 0.2983677
vt 0.2056392 0.2983677
vt 0.2056392 0.4735622
vt 0.1030027 0.4735622
vt 0.2058834 0.2983677
vt 0.3085199 0.2983677
vt 0.3085199 0.4735622
vt 0.2058834 0.4735622
vt 0.308764 0.2983677
vt 0.4114006 0.2983677
vt 0.4114006 0.4735622
vt 0.308764 0.4735622
vt 0.4116447 0.2983677
vt 0.5142812 0.2983677
vt 0.5142812 0.4735622
vt 0.4116447 0.4735622
vt 0.0001220703 0.1229291
vt 0.1027586 0.1229291
vt 0.1027586 0.2981235
vt 0.0001220703 0.2981235
vt 0.1030027 0.1229291
vt 0.2056392 0.1229291
vt 0.2056392 0.2981235
vt 0.1030027 0.2981235
vt 0.2058834 0.1229291
vt 0.3085199 0.1229291
vt 0.3085199 0.2981235
vt 0.2058834 0.2981235
vt 0.308764 0.1229291
vt 0.4114006 0.1229291
vt 0.4114006 0.2981235
vt 0.308764 0.2981235
vt 0.4116447 0.1229291
vt 0.5142812 0.1229291
vt 0.5142812 0.2981235
vt 0.4116447 0.2981235

# Normal
vn 0 0 -1

# Groups (Count = 1)
g mesh_[00]_[00]
f  1/1/1  2/2/1  3/3/1  4/4/1 
f  2/5/1  5/6/1  6/7/1  3/8/1 
f  5/9/1  7/10/1  8/11/1  6/12/1 
f  7/13/1  9/14/1  10/15/1  8/16/1 
f  9/17/1  11/18/1  12/19/1  10/20/1 
f  11/9/1  13/10/1  14/11/1  12/12/1 
f  13/13/1  15/14/1  16/15/1  14/16/1 
f  15/17/1  17/18/1  18/19/1  16/20/1 
f  17/1/1  19/2/1  20/3/1  18/4/1 
f  19/5/1  21/6/1  22/7/1  20/8/1 
f  21/9/1  23/10/1  24/11/1  22/12/1 
f  23/13/1  25/14/1  26/15/1  24/16/1 
f  25/17/1  27/18/1  28/19/1  26/20/1 
f  27/1/1  29/2/1  30/3/1  28/4/1 
f  29/5/1  31/6/1  32/7/1  30/8/1 
f  31/9/1  33/10/1  34/11/1  32/12/1 
f  33/13/1  35/14/1  36/15/1  34/16/1 
f  35/17/1  37/18/1  38/19/1  36/20/1 
f  37/1/1  39/2/1  40/3/1  38/4/1 
f  39/5/1  41/6/1  42/7/1  40/8/1 
f  41/9/1  43/10/1  44/11/1  42/12/1 
f  43/13/1  45/14/1  46/15/1  44/16/1 
f  45/1/1  47/2/1  48/3/1  46/4/1 
f  47/5/1  49/6/1  50/7/1  48/8/1 
f  49/9/1  51/10/1  52/11/1  50/12/1 
f  51/13/1  53/14/1  54/15/1  52/16/1 
f  53/17/1  55/18/1  56/19/1  54/20/1 
f  55/13/1  57/14/1  58/15/1  56/16/1 
f  57/1/1  59/2/1  60/3/1  58/4/1 
f  59/5/1  61/6/1  62/7/1  60/8/1 
f  61/9/1  63/10/1  64/11/1  62/12/1 
f  63/13/1  65/14/1  66/15/1  64/16/1 
f  65/1/1  67/2/1  68/3/1  66/4/1 
f  67/5/1  69/6/1  70/7/1  68/8/1 
f  69/9/1  71/10/1  72/11/1  70/12/1 
f  71/13/1  73/14/1  74/15/1  72/16/1 
f  73/17/1  75/18/1  76/19/1  74/20/1 
f  75/1/1  77/2/1  78/3/1  76/4/1 
f  77/5/1  79/6/1  80/7/1  78/8/1 
f  79/9/1  81/10/1  82/11/1  80/12/1 
f  81/13/1  83/14/1  84/15/1  82/16/1 
f  83/1/1  85/2/1  86/3/1  84/4/1 
f  85/5/1  87/6/1  88/7/1  86/8/1 
f  87/9/1  89/10/1  90/11/1  88/12/1 
f  89/13/1  91/14/1  92/15/1  90/16/1 
f  91/1/1  93/2/1  94/3/1  92/4/1 
f  93/5/1  95/6/1  96/7/1  94/8/1 
f  95/9/1  97/10/1  98/11/1  96/12/1 
f  97/13/1  99/14/1  100/15/1  98/16/1 
f  99/17/1  101/18/1  102/19/1  100/20/1 
f  103/21/1  104/22/1  2/23/1  1/24/1 
f  104/25/1  105/26/1  5/27/1  2/28/1 
f  105/29/1  106/30/1  7/31/1  5/32/1 
f  106/33/1  107/34/1  9/35/1  7/36/1 
f  107/37/1  108/38/1  11/39/1  9/40/1 
f  108/29/1  109/30/1  13/31/1  11/32/1 
f  109/33/1  110/34/1  15/35/1  13/36/1 
f  110/37/1  111/38/1  17/39/1  15/40/1 
f  111/21/1  112/22/1  19/23/1  17/24/1 
f  112/25/1  113/26/1  21/27/1  19/28/1 
f  113/29/1  114/30/1  23/31/1  21/32/1 
f  114/33/1  115/34/1  25/35/1  23/36/1 
f  115/37/1  116/38/1  27/39/1  25/40/1 
f  116/21/1  117/22/1  29/23/1  27/24/1 
f  117/25/1  118/26/1  31/27/1  29/28/1 
f  118/29/1  119/30/1  33/31/1  31/32/1 
f  119/33/1  120/34/1  35/35/1  33/36/1 
f  120/37/1  121/38/1  37/39/1  35/40/1 
f  121/21/1  122/22/1  39/23/1  37/24/1 
f  122/25/1  123/26/1  41/27/1  39/28/1 
f  123/29/1  124/30/1  43/31/1  41/32/1 
f  124/33/1  125/34/1  45/35/1  43/36/1 
f  125/21/1  126/22/1  47/23/1  45/24/1 
f  126/25/1  127/26/1  49/27/1  47/28/1 
f  127/29/1  128/30/1  51/31/1  49/32/1 
f  128/33/1  129/34/1  53/35/1  51/36/1 
f  129/37/1  130/38/1  55/39/1  53/40/1 
f  130/33/1  131/34/1  57/35/1  55/36/1 
f  131/21/1  132/22/1  59/23/1  57/24/1 
f  132/25/1  133/26/1  61/27/1  59/28/1 
f  133/29/1  134/30/1  63/31/1  61/32/1 
f  134/33/1  135/34/1  65/35/1  63/36/1 
f  135/21/1  136/22/1  67/23/1  65/24/1 
f  136/25/1  137/26/1  69/27/1  67/28/1 
f  137/29/1  138/30/1  71/31/1  69/32/1 
f  138/33/1  139/34/1  73/35/1  71/36/1 
f  139/37/1  140/38/1  75/39/1  73/40/1 
f  140/21/1  141/22/1  77/23/1  75/24/1 
f  141/25/1  142/26/1  79/27/1  77/28/1 
f  142/29/1  143/30/1  81/31/1  79/32/1 
f  143/33/1  144/34/1  83/35/1  81/36/1 
f  144/21/1  145/22/1  85/23/1  83/24/1 
f  145/25/1  146/26/1  87/27/1  85/28/1 
f  146/29/1  147/30/1  89/31/1  87/32/1 
f  147/33/1  148/34/1  91/35/1  89/36/1 
f  148/21/1  149/22/1  93/23/1  91/24/1 
f  149/25/1  150/26/1  95/27/1  93/28/1 
f  150/29/1  151/30/1  97/31/1  95/32/1 
f  151/33/1  152/34/1  99/35/1  97/36/1 
f  152/37/1  153/38/1  101/39/1  99/40/1 
f  154/41/1  155/42/1  104/43/1  103/44/1 
f  155/45/1  156/46/1  105/47/1  104/48/1 
f  156/49/1  157/50/1  106/51/1  105/52/1 
f  157/53/1  158/54/1  107/55/1  106/56/1 
f  158/57/1  159/58/1  108/59/1  107/60/1 
f  159/49/1  160/50/1  109/51/1  108/52/1 
f  160/53/1  161/54/1  110/55/1  109/56/1 
f  161/57/1  162/58/1  111/59/1  110/60/1 
f  162/41/1  163/42/1  112/43/1  111/44/1 
f  163/45/1  164/46/1  113/47/1  112/48/1 
f  164/49/1  165/50/1  114/51/1  113/52/1 
f  165/53/1  166/54/1  115/55/1  114/56/1 
f  166/57/1  167/58/1  116/59/1  115/60/1 
f  167/41/1  168/42/1  117/43/1  116/44/1 
f  168/45/1  169/46/1  118/47/1  117/48/1 
f  169/49/1  170/50/1  119/51/1  118/52/1 
f  170/53/1  171/54/1  120/55/1  119/56/1 
f  171/57/1  172/58/1  121/59/1  120/60/1 
f  172/41/1  173/42/1  122/43/1  121/44/1 
f  173/45/1  174/46/1  123/47/1  122/48/1 
f  174/49/1  175/50/1  124/51/1  123/52/1 
f  175/53/1  176/54/1  125/55/1  124/56/1 
f  176/41/1  177/42/1  126/43/1  125/44/1 
f  177/45/1  178/46/1  127/47/1  126/48/1 
f  178/49/1  179/50/1  128/51/1  127/52/1 
f  179/53/1  180/54/1  129/55/1  128/56/1 
f  180/57/1  181/58/1  130/59/1  129/60/1 
f  181/53/1  182/54/1  131/55/1  130/56/1 
f  182/41/1  183/42/1  132/43/1  131/44/1 
f  183/45/1  184/46/1  133/47/1  132/48/1 
f  184/49/1  185/50/1  134/51/1  133/52/1 
f  185/53/1  186/54/1  135/55/1  134/56/1 
f  186/41/1  187/42/1  136/43/1  135/44/1 
f  187/45/1  188/46/1  137/47/1  136/48/1 
f  188/49/1  189/50/1  138/51/1  137/52/1 
f  189/53/1  190/54/1  139/55/1  138/56/1 
f  190/57/1  191/58/1  140/59/1  139/60/1 
f  191/41/1  192/42/1  141/43/1  140/44/1 
f  192/45/1  193/46/1  142/47/1  141/48/1 
f  193/49/1  194/50/1  143/51/1  142/52/1 
f  194/53/1  195/54/1  144/55/1  143/56/1 
f  195/41/1  196/42/1  145/43/1  144/44/1 
f  196/45/1  197/46/1  146/47/1  145/48/1 
f  197/49/1  198/50/1  147/51/1  146/52/1 
f  198/53/1  199/54/1  148/55/1  147/56/1 
f  199/41/1  200/42/1  149/43/1  148/44/1 
f  200/45/1  201/46/1  150/47/1  149/48/1 
f  201/49/1  202/50/1  151/51/1  150/52/1 
f  202/53/1  203/54/1  152/55/1  151/56/1 
f  203/57/1  204/58/1  153/59/1  152/60/1 
f  205/61/1  206/62/1  155/63/1  154/64/1 
f  206/65/1  207/66/1  156/67/1  155/68/1 
f  207/69/1  208/70/1  157/71/1  156/72/1 
f  208/73/1  209/74/1  158/75/1  157/76/1 
f  209/77/1  210/78/1  159/79/1  158/80/1 
f  210/69/1  211/70/1  160/71/1  159/72/1 
f  211/73/1  212/74/1  161/75/1  160/76/1 
f  212/77/1  213/78/1  162/79/1  161/80/1 
f  213/61/1  214/62/1  163/63/1  162/64/1 
f  214/65/1  215/66/1  164/67/1  163/68/1 
f  215/69/1  216/70/1  165/71/1  164/72/1 
f  216/73/1  217/74/1  166/75/1  165/76/1 
f  217/77/1  218/78/1  167/79/1  166/80/1 
f  218/61/1  219/62/1  168/63/1  167/64/1 
f  219/65/1  220/66/1  169/67/1  168/68/1 
f  220/69/1  221/70/1  170/71/1  169/72/1 
f  221/73/1  222/74/1  171/75/1  170/76/1 
f  222/77/1  223/78/1  172/79/1  171/80/1 
f  223/61/1  224/62/1  173/63/1  172/64/1 
f  224/65/1  225/66/1  174/67/1  173/68/1 
f  225/69/1  226/70/1  175/71/1  174/72/1 
f  226/73/1  227/74/1  176/75/1  175/76/1 
f  227/61/1  228/62/1  177/63/1  176/64/1 
f  228/65/1  229/66/1  178/67/1  177/68/1 
f  229/69/1  230/70/1  179/71/1  178/72/1 
f  230/73/1  231/74/1  180/75/1  179/76/1 
f  231/77/1  232/78/1  181/79/1  180/80/1 
f  232/73/1  233/74/1  182/75/1  181/76/1 
f  233/61/1  234/62/1  183/63/1  182/64/1 
f  234/65/1  235/66/1  184/67/1  183/68/1 
f  235/69/1  236/70/1  185/71/1  184/72/1 
f  236/73/1  237/74/1  186/75/1  185/76/1 
f  237/61/1  238/62/1  187/63/1  186/64/1 
f  238/65/1  239/66/1  188/67/1  187/68/1 
f  239/69/1  240/70/1  189/71/1  188/72/1 
f  240/73/1  241/74/1  190/75/1  189/76/1 
f  241/77/1  242/78/1  191/79/1  190/80/1 
f  242/61/1  243/62/1  192/63/1  191/64/1 
f  243/65/1  244/66/1  193/67/1  192/68/1 
f  244/69/1  245/70/1  194/71/1  193/72/1 
f  245/73/1  246/74/1  195/75/1  194/76/1 
f  246/61/1  247/62/1  196/63/1  195/64/1 
f  247/65/1  248/66/1  197/67/1  196/68/1 
f  248/69/1  249/70/1  198/71/1  197/72/1 
f  249/73/1  250/74/1  199/75/1  198/76/1 
f  250/61/1  251/62/1  200/63/1  199/64/1 
f  251/65/1  252/66/1  201/67/1  200/68/1 
f  252/69/1  253/70/1  202/71/1  201/72/1 
f  253/73/1  254/74/1  203/75/1  202/76/1 
f  254/77/1  255/78/1  204/79/1  203/80/1 
f  256/81/1  257/82/1  206/83/1  205/84/1 
f  257/85/1  258/86/1  207/87/1  206/88/1 
f  258/89/1  259/90/1  208/91/1  207/92/1 
f  259/93/1  260/94/1  209/95/1  208/96/1 
f  260/97/1  261/98/1  210/99/1  209/100/1 
f  261/89/1  262/90/1  211/91/1  210/92/1 
f  262/93/1  263/94/1  212/95/1  211/96/1 
f  263/97/1  264/98/1  213/99/1  212/100/1 
f  264/81/1  265/82/1  214/83/1  213/84/1 
f  265/85/1  266/86/1  215/87/1  214/88/1 
f  266/89/1  267/90/1  216/91/1  215/92/1 
f  267/93/1  268/94/1  217/95/1  216/96/1 
f  268/97/1  269/98/1  218/99/1  217/100/1 
f  269/81/1  270/82/1  219/83/1  218/84/1 
f  270/85/1  271/86/1  220/87/1  219/88/1 
f  271/89/1  272/90/1  221/91/1  220/92/1 
f  272/93/1  273/94/1  222/95/1  221/96/1 
f  273/97/1  274/98/1  223/99/1  222/100/1 
f  274/81/1  275/82/1  224/83/1  223/84/1 
f  275/85/1  276/86/1  225/87/1  224/88/1 
f  276/89/1  277/90/1  226/91/1  225/92/1 
f  277/93/1  278/94/1  227/95/1  226/96/1 
f  278/81/1  279/82/1  228/83/1  227/84/1 
f  279/85/1  280/86/1  229/87/1  228/88/1 
f  280/89/1  281/90/1  230/91/1  229/92/1 
f  281/93/1  282/94/1  231/95/1  230/96/1 
f  282/97/1  283/98/1  232/99/1  231/100/1 
f  283/93/1  284/94/1  233/95/1  232/96/1 
f  284/81/1  285/82/1  234/83/1  233/84/1 
f  285/85/1  286/86/1  235/87/1  234/88/1 
f  286/89/1  287/90/1  236/91/1  235/92/1 
f  287/93/1  288/94/1  237/95/1  236/96/1 
f  288/81/1  289/82/1  238/83/1  237/84/1 
f  289/85/1  290/86/1  239/87/1  238/88/1 
f  290/89/1  291/90/1  240/91/1  239/92/1 
f  291/93/1  292/94/1  241/95/1  240/96/1 
f  292/97/1  293/98/1  242/99/1  241/100/1 
f  293/81/1  294/82/1  243/83/1  242/84/1 
f  294/85/1  295/86/1  244/87/1  243/88/1 
f  295/89/1  296/90/1  245/91/1  244/92/1 
f  296/93/1  297/94/1  246/95/1  245/96/1 
f  297/81/1  298/82/1  247/83/1  246/84/1 
f  298/85/1  299/86/1  248/87/1  247/88/1 
f  299/89/1  300/90/1  249/91/1  248/92/1 
f  300/93/1  301/94/1  250/95/1  249/96/1 
f  301/81/1  302/82/1  251/83/1  250/84/1 
f  302/85/1  303/86/1  252/87/1  251/88/1 
f  303/89/1  304/90/1  253/91/1  252/92/1 
f  304/93/1  305/94/1  254/95/1  253/96/1 
f  305/97/1  306/98/1  255/99/1  254/100/1 
