# Wavefront OBJ file automatically generated by Tiled2Unity

# Vertices (Count = 24)
v 0 -352 0
v -505 -352 0
v -505 -264 0
v 0 -264 0
v -1010 -352 0
v -1010 -264 0
v -1515 -352 0
v -1515 -264 0
v -2020 -352 0
v -2020 -264 0
v -2525 -352 0
v -2525 -264 0
v -3030 -352 0
v -3030 -264 0
v -3535 -352 0
v -3535 -264 0
v -4040 -352 0
v -4040 -264 0
v -4545 -352 0
v -4545 -264 0
v -5050 -352 0
v -5050 -264 0
v -5555 -352 0
v -5555 -264 0

# Texture Coorindates (Count = 4)
vt 0.0001220703 0.0001220703
vt 0.9998779 0.0001220703
vt 0.9998779 0.9998779
vt 0.0001220703 0.9998779

# Normal
vn 0 0 -1

# Groups (Count = 1)
g mesh_[00]_[00]
f  1/1/1  2/2/1  3/3/1  4/4/1 
f  2/1/1  5/2/1  6/3/1  3/4/1 
f  5/1/1  7/2/1  8/3/1  6/4/1 
f  7/1/1  9/2/1  10/3/1  8/4/1 
f  9/1/1  11/2/1  12/3/1  10/4/1 
f  11/1/1  13/2/1  14/3/1  12/4/1 
f  13/1/1  15/2/1  16/3/1  14/4/1 
f  15/1/1  17/2/1  18/3/1  16/4/1 
f  17/1/1  19/2/1  20/3/1  18/4/1 
f  19/1/1  21/2/1  22/3/1  20/4/1 
f  21/1/1  23/2/1  24/3/1  22/4/1 
